HIERARCHY
ROOT Hips
{
	OFFSET	0.00	0.00	0.00
	CHANNELS 6 Xposition Yposition Zposition Zrotation Xrotation Yrotation
	JOINT LeftUpLeg
	{
		OFFSET	 0.126116	-0.014019	-0.065224
		CHANNELS 3 Zrotation Xrotation Yrotation
		JOINT LeftLeg
		{
			OFFSET	 0.000000	 0.000000	 0.569914
			CHANNELS 3 Zrotation Xrotation Yrotation
			JOINT LeftFoot
			{
				OFFSET	 0.000000	 0.000000	 0.544423
				CHANNELS 3 Zrotation Xrotation Yrotation
				JOINT LeftToeBase
				{
					OFFSET	 0.000000	 0.000000	 0.207117
					CHANNELS 3 Zrotation Xrotation Yrotation
					End Site
					{
						OFFSET	 0.000000	 0.000000	 0.207117
					}
				}
			}
		}
	}
	JOINT RightUpLeg
	{
		OFFSET	-0.124023	-0.008373	-0.065224
		CHANNELS 3 Zrotation Xrotation Yrotation
		JOINT RightLeg
		{
			OFFSET	 0.000000	 0.000000	 0.570047
			CHANNELS 3 Zrotation Xrotation Yrotation
			JOINT RightFoot
			{
				OFFSET	 0.000000	 0.000000	 0.544354
				CHANNELS 3 Zrotation Xrotation Yrotation
				JOINT RightToeBase
				{
					OFFSET	 0.000000	 0.000000	 0.207540
					CHANNELS 3 Zrotation Xrotation Yrotation
					End Site
					{
						OFFSET	 0.000000	 0.000000	 0.207540
					}
				}
			}
		}
	}
	JOINT Spine
	{
		OFFSET	 0.000184	-0.007763	 0.117403
		CHANNELS 3 Zrotation Xrotation Yrotation
		JOINT Spine1
		{
			OFFSET	 0.000000	 0.000000	 0.137269
			CHANNELS 3 Zrotation Xrotation Yrotation
			JOINT Spine2
			{
				OFFSET	 0.000000	 0.000000	 0.156879
				CHANNELS 3 Zrotation Xrotation Yrotation
				JOINT LeftShoulder
				{
					OFFSET	 0.080501	-0.002496	 0.160144
					CHANNELS 3 Zrotation Xrotation Yrotation
					JOINT LeftArm
					{
						OFFSET	 0.000000	 0.000000	 0.164363
						CHANNELS 3 Zrotation Xrotation Yrotation
						JOINT LeftForeArm
						{
							OFFSET	 0.000000	 0.000000	 0.364576
							CHANNELS 3 Zrotation Xrotation Yrotation
							JOINT LeftHand
							{
								OFFSET	 0.000000	 0.000000	 0.360812
								CHANNELS 3 Zrotation Xrotation Yrotation
								JOINT LeftHandIndex1
								{
									OFFSET	 0.000000	 0.000000	 0.086006
									CHANNELS 3 Zrotation Xrotation Yrotation
									JOINT LeftHandIndex2
									{
										OFFSET	 0.000000	 0.000000	 0.047236
										CHANNELS 3 Zrotation Xrotation Yrotation
										JOINT LeftHandIndex3
										{
											OFFSET	-0.004284	-0.000551	 0.038166
											CHANNELS 3 Zrotation Xrotation Yrotation
											End Site
											{
												OFFSET	-0.004284	-0.000551	 0.038166
											}
										}
									}
								}
							}
						}
					}
				}
				JOINT Neck
				{
					OFFSET	 0.000000	 0.000000	 0.176489
					CHANNELS 3 Zrotation Xrotation Yrotation
					JOINT Head
					{
						OFFSET	 0.000000	-0.001747	 0.077940
						CHANNELS 3 Zrotation Xrotation Yrotation
						End Site
						{
							OFFSET	 0.000000	-0.001747	 0.077940
						}
					}
				}
				JOINT RightShoulder
				{
					OFFSET	-0.080363	 0.000306	 0.159706
					CHANNELS 3 Zrotation Xrotation Yrotation
					JOINT RightArm
					{
						OFFSET	 0.000000	 0.000000	 0.164196
						CHANNELS 3 Zrotation Xrotation Yrotation
						JOINT RightForeArm
						{
							OFFSET	 0.000000	 0.000000	 0.365611
							CHANNELS 3 Zrotation Xrotation Yrotation
							JOINT RightHand
							{
								OFFSET	 0.000000	 0.000000	 0.360648
								CHANNELS 3 Zrotation Xrotation Yrotation
								JOINT RightHandIndex1
								{
									OFFSET	 0.000000	 0.000000	 0.069977
									CHANNELS 3 Zrotation Xrotation Yrotation
									JOINT RightHandIndex2
									{
										OFFSET	 0.000000	 0.000000	 0.052305
										CHANNELS 3 Zrotation Xrotation Yrotation
										JOINT RightHandIndex3
										{
											OFFSET	 0.009002	-0.000782	 0.042196
											CHANNELS 3 Zrotation Xrotation Yrotation
											End Site
											{
												OFFSET	 0.009002	-0.000782	 0.042196
											}
										}
									}
								}
							}
						}
					}
				}
			}
		}
	}
}
MOTION
Frames:    8
Frame Time: 0.03333334
-0.000586	 0.044658	 1.279939	-0.026917	 3.408495	 0.440534	-11.675600	-5.618858	 179.531700	 2.141359	-11.012000	 0.488905	-0.161270	 69.988380	 0.110477	-2.385833	 28.452750	 0.000004	 19.071300	-5.002727	-179.364900	-0.802128	-9.213299	 0.696845	 5.098045	 68.782610	 1.204257	 2.384659	 28.388700	-0.000001	-6.238491	 6.963019	 1.585191	-3.225003	-6.323060	-0.688618	 9.756821	 9.102615	-0.871364	-90.976040	 68.478460	-177.406200	-7.196782	 0.712267	-0.259633	 22.560860	-9.127432	-36.614750	-8.099171	-29.994700	-5.147199	-2.027600	 6.559038	 9.033609	-5.188889	 0.308190	 3.541030	-5.234859	 0.342567	 0.430617	 4.700083	 21.343420	-7.794680	 5.183590	-16.263790	 2.323580	 88.726640	 66.711210	 176.823300	 8.087184	 4.479900	 7.323439	-26.445700	-8.988969	 24.660600	 5.305804	-29.284660	 6.228094	 1.803333	 3.979147	-15.098590	 4.898592	 3.004813	-9.310344	 5.224449	 0.395017	 2.014677
-0.000934	 0.046246	 1.281152	 0.022282	 3.990997	 0.455824	-11.836400	-5.980464	 179.339000	 2.081128	-10.335520	 0.459294	-0.638246	 69.529950	 0.625150	-2.385833	 28.452750	 0.000004	 19.009520	-5.166888	-179.123800	-0.812646	-8.165669	 0.616682	 5.240866	 68.059910	 1.030512	 2.384659	 28.388700	-0.000001	-6.168193	 7.236375	 1.673015	-3.284130	-7.689526	-0.910922	 9.737019	 10.422460	-0.977151	-90.900830	 67.955080	-177.260800	-7.015126	 0.605607	-0.701704	 22.198930	-9.009171	-37.122380	-7.484945	-31.359790	-5.614649	-2.027600	 6.559038	 9.033609	-5.188889	 0.308190	 3.541030	-5.234859	 0.342567	 0.430617	 4.726414	 22.943690	-8.255946	 5.460505	-17.570280	 2.441063	 88.581600	 65.699620	 176.585600	 7.574935	 3.662013	 8.004057	-26.332720	-9.067559	 24.990670	 4.228219	-30.207550	 6.017941	 1.803333	 3.979147	-15.098590	 4.898592	 3.004813	-9.310344	 5.224449	 0.395017	 2.014677
-0.001882	 0.051724	 1.284508	 0.177586	 5.863631	 0.540845	-12.079840	-7.093759	 178.697300	 2.109210	-8.026958	 0.352923	-2.060984	 68.008740	 2.199510	-2.385832	 28.452790	-0.000001	 18.662950	-4.906006	-178.314000	-1.195675	-3.108351	 0.214557	 5.736865	 64.988010	 0.811580	 2.384659	 28.388700	-0.000001	-5.858992	 7.847254	 1.814568	-3.513797	-11.755370	-1.506486	 9.503047	 13.963130	-1.309750	-90.832950	 66.172290	-177.342800	-5.997900	 0.529251	-1.161512	 20.349220	-8.021967	-38.821810	-7.321024	-35.072100	-7.531156	-2.027600	 6.559038	 9.033609	-5.188889	 0.308190	 3.541030	-5.234859	 0.342567	 0.430617	 4.433387	 25.880490	-8.800736	 5.969491	-20.148390	 2.523973	 88.395710	 62.815170	 176.546000	 5.705427	 1.746880	 8.982698	-25.411050	-9.032348	 26.112320	 1.803040	-32.711980	 6.125486	 1.803333	 3.979147	-15.098590	 4.898592	 3.004813	-9.310344	 5.224449	 0.395017	 2.014677
-0.002462	 0.061116	 1.286705	 0.579628	 8.735032	 0.584727	-12.689380	-9.886411	 177.749200	 1.975206	-6.531372	 0.272209	-3.787842	 66.346790	 4.259093	-2.385833	 28.452760	 0.000004	 18.022440	-7.034141	-177.224600	-1.599124	-0.515377	 0.031946	 7.389273	 62.973580	-0.641026	 2.384659	 28.388700	-0.000001	-5.445136	 7.782090	 1.775820	-3.869962	-17.094260	-2.192044	 8.938000	 17.687090	-1.500232	-91.532880	 64.844780	-179.358200	-3.678316	 2.447720	 1.427175	 18.365750	-6.941205	-41.215690	-8.683933	-38.867090	-10.391990	-2.027600	 6.559038	 9.033609	-5.188889	 0.308190	 3.541030	-5.234859	 0.342567	 0.430617	 3.706171	 26.956090	-8.741618	 6.141511	-21.648780	 2.483235	 89.023570	 60.964000	 178.234600	 2.280825	 2.505898	 7.049838	-24.210250	-8.990691	 27.726100	-0.370911	-35.919440	 6.779929	 1.803333	 3.979147	-15.098590	 4.898592	 3.004813	-9.310344	 5.224449	 0.395017	 2.014677
-0.002792	 0.072101	 1.286618	 0.883663	 11.746940	 0.485440	-13.209860	-14.095180	 176.853800	 1.971609	-7.417603	 0.308487	-5.694405	 65.956980	 6.418958	-2.385832	 28.452790	-0.000001	 17.637160	-10.638690	-176.039900	-1.876299	-0.513565	 0.029341	 9.415440	 62.327640	-2.659154	 2.384659	 28.388700	-0.000001	-5.010989	 6.975205	 1.764969	-4.030501	-20.695670	-2.639679	 8.285509	 19.790450	-1.206364	-92.594760	 65.110040	 177.813700	-1.230041	 6.492894	 5.047343	 18.187280	-7.289488	-43.267230	-9.126231	-42.051820	-11.978500	-2.027600	 6.559038	 9.033609	-5.188889	 0.308190	 3.541030	-5.234859	 0.342567	 0.430617	 3.117361	 25.288570	-9.028844	 5.932081	-21.422060	 2.251191	 90.069760	 60.284920	-179.345400	-0.766595	 5.753092	 4.183739	-22.767800	-8.653745	 29.118200	-0.926960	-39.384860	 7.433152	 1.803333	 3.979147	-15.098590	 4.898592	 3.004813	-9.310344	 5.224449	 0.395017	 2.014677
-0.004500	 0.091193	 1.286429	 2.455274	 17.301710	 0.532757	-15.327010	-21.103980	 174.457200	 2.869572	-7.685665	 0.439953	-9.340795	 64.182870	 9.633883	-2.385833	 28.452750	 0.000004	 15.901160	-17.370560	-174.650100	-1.456243	-0.512781	 0.033070	 10.701330	 60.267190	-4.770987	 2.384659	 28.388700	-0.000001	-4.940478	 4.904353	 1.456748	-4.659434	-23.020710	-3.103139	 7.135303	 19.881480	-1.085573	-93.674210	 65.386130	 174.865400	 3.367017	 12.073740	 7.877000	 17.995760	-7.854829	-46.125460	-9.420686	-45.080730	-13.400380	-2.027600	 6.559038	 9.033609	-5.188889	 0.308190	 3.541030	-5.234859	 0.342567	 0.430617	 2.604050	 24.285850	-8.312272	 5.447698	-21.853970	 1.913985	 91.316810	 60.682470	-176.462600	-4.427342	 11.261160	 1.777586	-21.259230	-8.308923	 30.836430	-0.705501	-42.901050	 8.745350	 1.803333	 3.979147	-15.098590	 4.898592	 3.004813	-9.310344	 5.224449	 0.395017	 2.014677
-0.006485	 0.109985	 1.285051	 4.058704	 21.744020	 0.221608	-17.428360	-26.349230	 172.382900	 3.549324	-6.762074	 0.467705	-11.849560	 62.084930	 11.843590	-2.385833	 28.452750	 0.000004	 14.225330	-22.940910	-173.554600	-2.059716	-0.513979	 0.027716	 12.519950	 58.729290	-6.367566	 2.384659	 28.388700	-0.000001	-4.878910	 4.500601	 1.334983	-5.118032	-23.362520	-2.769675	 6.163562	 19.325410	-1.478692	-94.340370	 66.314200	 172.728300	 8.449455	 18.410640	 5.775130	 18.088320	-8.236071	-47.116630	-10.338160	-48.386150	-14.935830	-2.027600	 6.559038	 9.033609	-5.188889	 0.308190	 3.541030	-5.234859	 0.342567	 0.430617	 2.146995	 23.626630	-6.831981	 4.717379	-22.591750	 1.151963	 92.251800	 61.643060	-174.117400	-6.970163	 17.426880	 3.012664	-20.819310	-8.087267	 31.019180	 0.214330	-46.048440	 10.140690	 1.803333	 3.979147	-15.098590	 4.898592	 3.004813	-9.310344	 5.224449	 0.395017	 2.014677
-0.009034	 0.127096	 1.279276	 4.110017	 23.837500	-0.014413	-18.106620	-32.587220	 171.275600	 3.615788	-13.759470	 0.960573	-14.223340	 64.835680	 14.586910	-2.385833	 28.452750	 0.000004	 14.931590	-31.555640	-172.810200	-2.250856	-12.680220	 0.636087	 17.182710	 63.739810	-11.609760	 2.384659	 28.388700	-0.000001	-4.172290	 7.949960	 1.491952	-4.467256	-20.743130	-1.179549	 5.688335	 18.793200	-2.149473	-94.556740	 69.088100	 170.595400	 13.820640	 23.901270	-2.820637	 18.307840	-8.524727	-47.268180	-12.260930	-53.040390	-17.016910	-2.027600	 6.559038	 9.033609	-5.188889	 0.308190	 3.541030	-5.234859	 0.342567	 0.430617	 1.366363	 22.217640	-6.034443	 4.113826	-23.133960	 0.732630	 92.907100	 63.252200	-172.083300	-9.187815	 24.039750	 9.523931	-20.056530	-7.705652	 31.366210	 4.345929	-50.691710	 13.129930	 1.803333	 3.979147	-15.098590	 4.898592	 3.004813	-9.310344	 5.224449	 0.395017	 2.014677
